<?xml version="1.0" encoding="utf-8"?>
<!-- Generator: Adobe Illustrator 16.0.0, SVG Export Plug-In . SVG Version: 6.00 Build 0)  -->
<!DOCTYPE svg PUBLIC "-//W3C//DTD SVG 1.1//EN" "http://www.w3.org/Graphics/SVG/1.1/DTD/svg11.dtd">
<svg version="1.1" xmlns="http://www.w3.org/2000/svg" xmlns:xlink="http://www.w3.org/1999/xlink" x="0px" y="0px" width="256px"
	 height="256px" viewBox="0 0 256 256" enable-background="new 0 0 256 256" xml:space="preserve">
<g id="Layer_2">
	<rect fill="#C91E60" width="256" height="256"/>
</g>
<g id="Layer_5">
	<text transform="matrix(1 0 0 1 64.1411 78.187)"><tspan x="0" y="0" fill="#FFFFFF" font-family="'Helvetica-Light'" font-size="39.6274">Activity</tspan><tspan x="29.72" y="47.553" fill="#FFFFFF" font-family="'Helvetica-Light'" font-size="39.6274">Log</tspan></text>
</g>
<g id="Layer_4">
	<g>
		<path fill="none" d="M153.006,225.923c-13.807,0-25-11.193-25-25s11.193-25,25-25H256V0H0v256h256v-30.077H153.006z"/>
		<path fill="#FFFFFF" d="M128.006,200.923c0,13.807,11.193,25,25,25H256v-50H153.006
			C139.199,175.923,128.006,187.116,128.006,200.923z"/>
	</g>
</g>
<g id="Layer_6">
	<g>
		<path fill="#C91E60" d="M166.129,200.071c0,1.251-0.235,2.424-0.707,3.52c-0.472,1.099-1.121,2.059-1.946,2.885
			c-0.826,0.825-1.786,1.473-2.883,1.945c-1.098,0.471-2.27,0.707-3.521,0.707c-1.085,0-2.104-0.178-3.06-0.53
			c-0.956-0.354-1.821-0.837-2.601-1.45v7.075c0,0.472-0.165,0.871-0.495,1.202c-0.33,0.33-0.73,0.496-1.202,0.496
			c-0.473,0-0.873-0.166-1.203-0.496c-0.331-0.331-0.493-0.73-0.493-1.202v-14.151c0-1.251,0.234-2.424,0.705-3.52
			c0.472-1.097,1.118-2.058,1.946-2.884c0.826-0.826,1.786-1.474,2.884-1.946c1.096-0.471,2.269-0.706,3.519-0.706
			c1.251,0,2.423,0.235,3.521,0.706c1.097,0.473,2.057,1.12,2.883,1.946c0.825,0.826,1.475,1.787,1.946,2.884
			C165.894,197.647,166.129,198.82,166.129,200.071 M162.733,200.071c0-0.779-0.148-1.51-0.442-2.192
			c-0.297-0.685-0.702-1.286-1.221-1.805c-0.519-0.52-1.12-0.926-1.805-1.22c-0.685-0.296-1.416-0.443-2.193-0.443
			c-0.778,0-1.509,0.147-2.193,0.443c-0.685,0.294-1.285,0.7-1.805,1.22c-0.519,0.519-0.926,1.12-1.22,1.805
			c-0.295,0.683-0.442,1.413-0.442,2.192c0,0.778,0.147,1.51,0.442,2.193c0.294,0.684,0.701,1.286,1.22,1.805
			c0.52,0.519,1.12,0.926,1.805,1.22c0.685,0.298,1.415,0.442,2.193,0.442c0.777,0,1.509-0.145,2.193-0.442
			c0.685-0.294,1.286-0.701,1.805-1.22s0.924-1.121,1.221-1.805C162.585,201.581,162.733,200.85,162.733,200.071"/>
		<path fill="#C91E60" d="M167.827,200.071c0-1.251,0.236-2.424,0.707-3.52c0.472-1.097,1.121-2.058,1.947-2.884
			c0.824-0.826,1.785-1.474,2.882-1.946c1.098-0.471,2.271-0.706,3.521-0.706c1.249,0,2.424,0.235,3.519,0.706
			c1.097,0.473,2.058,1.12,2.884,1.946c0.825,0.826,1.474,1.787,1.946,2.884c0.471,1.096,0.707,2.269,0.707,3.52
			s-0.236,2.424-0.707,3.52c-0.473,1.099-1.121,2.059-1.946,2.885c-0.826,0.825-1.787,1.473-2.884,1.945
			c-1.095,0.471-2.27,0.707-3.519,0.707c-1.251,0-2.424-0.236-3.521-0.707c-1.097-0.473-2.058-1.12-2.882-1.945
			c-0.826-0.826-1.476-1.786-1.947-2.885C168.063,202.495,167.827,201.322,167.827,200.071 M171.224,200.071
			c0,0.778,0.146,1.51,0.441,2.193c0.297,0.684,0.702,1.286,1.221,1.805s1.121,0.926,1.805,1.22
			c0.684,0.298,1.415,0.442,2.194,0.442c0.776,0,1.508-0.145,2.191-0.442c0.686-0.294,1.286-0.701,1.806-1.22
			c0.518-0.519,0.925-1.121,1.22-1.805c0.296-0.684,0.443-1.415,0.443-2.193c0-0.779-0.147-1.51-0.443-2.192
			c-0.295-0.685-0.702-1.286-1.22-1.805c-0.52-0.52-1.12-0.926-1.806-1.22c-0.684-0.296-1.415-0.443-2.191-0.443
			c-0.779,0-1.511,0.147-2.194,0.443c-0.684,0.294-1.286,0.7-1.805,1.22c-0.519,0.519-0.924,1.12-1.221,1.805
			C171.37,198.562,171.224,199.292,171.224,200.071"/>
		<path fill="#C91E60" d="M185.092,215.921c-0.472,0-0.873-0.166-1.204-0.496c-0.328-0.331-0.494-0.73-0.494-1.202
			s0.166-0.873,0.494-1.203c0.331-0.331,0.732-0.495,1.204-0.495c0.944,0,1.746-0.33,2.405-0.99c0.66-0.662,0.991-1.463,0.991-2.406
			v-16.415c0-0.471,0.164-0.871,0.496-1.202c0.327-0.33,0.729-0.495,1.201-0.495s0.875,0.165,1.204,0.495
			c0.33,0.331,0.494,0.731,0.494,1.202v16.415c0,0.943-0.177,1.827-0.529,2.653c-0.354,0.825-0.838,1.545-1.452,2.157
			c-0.613,0.613-1.332,1.099-2.157,1.451C186.919,215.743,186.036,215.921,185.092,215.921 M188.205,187.901
			c0-0.542,0.195-1.008,0.583-1.396c0.389-0.39,0.854-0.584,1.397-0.584s1.008,0.194,1.397,0.584
			c0.388,0.389,0.584,0.854,0.584,1.396c0,0.543-0.196,1.01-0.584,1.398c-0.39,0.388-0.854,0.583-1.397,0.583
			s-1.009-0.195-1.397-0.583C188.4,188.911,188.205,188.444,188.205,187.901"/>
		<path fill="#C91E60" d="M194.431,200.071c0-1.251,0.235-2.424,0.707-3.52c0.473-1.097,1.119-2.058,1.947-2.884
			c0.824-0.826,1.783-1.474,2.883-1.946c1.097-0.471,2.27-0.706,3.519-0.706c1.25,0,2.425,0.235,3.522,0.706
			c1.096,0.473,2.056,1.12,2.883,1.946c0.825,0.826,1.473,1.787,1.944,2.884c0.472,1.096,0.708,2.269,0.708,3.52
			s-0.236,2.424-0.708,3.52c-0.472,1.099-1.119,2.059-1.944,2.885c-0.827,0.825-1.787,1.473-2.883,1.945
			c-1.098,0.471-2.272,0.707-3.522,0.707c-1.249,0-2.422-0.236-3.519-0.707c-1.1-0.473-2.059-1.12-2.883-1.945
			c-0.828-0.826-1.475-1.786-1.947-2.885C194.666,202.495,194.431,201.322,194.431,200.071 M197.827,200.071
			c0,0.778,0.146,1.51,0.442,2.193c0.295,0.684,0.701,1.286,1.22,1.805c0.52,0.519,1.12,0.926,1.805,1.22
			c0.684,0.298,1.415,0.442,2.192,0.442c0.779,0,1.511-0.145,2.194-0.442c0.684-0.294,1.284-0.701,1.803-1.22
			s0.926-1.121,1.224-1.805c0.294-0.684,0.439-1.415,0.439-2.193c0-0.779-0.146-1.51-0.439-2.192
			c-0.298-0.685-0.705-1.286-1.224-1.805c-0.519-0.52-1.119-0.926-1.803-1.22c-0.684-0.296-1.415-0.443-2.194-0.443
			c-0.777,0-1.509,0.147-2.192,0.443c-0.685,0.294-1.285,0.7-1.805,1.22c-0.519,0.519-0.925,1.12-1.22,1.805
			C197.974,198.562,197.827,199.292,197.827,200.071"/>
		<path fill="#353E44" d="M213.941,207.714c0.389,0,0.706,0.317,0.706,0.707s-0.317,0.707-0.706,0.707
			c-0.39,0-0.709-0.317-0.709-0.707S213.552,207.714,213.941,207.714"/>
		<path fill="#353E44" d="M223.845,208.562c0,0.318-0.246,0.565-0.564,0.565c-0.319,0-0.568-0.247-0.568-0.565v-4.528
			c0-1.556-1.272-2.83-2.828-2.83c-1.559,0-2.83,1.274-2.83,2.83v4.528c0,0.318-0.247,0.565-0.565,0.565
			c-0.319,0-0.566-0.247-0.566-0.565v-4.528c0-2.192,1.77-3.962,3.962-3.962c1.433,0,2.705,0.778,3.396,1.929
			c0.688-1.15,1.944-1.929,3.396-1.929c2.192,0,3.963,1.77,3.963,3.962v4.528c0,0.318-0.25,0.565-0.567,0.565
			c-0.318,0-0.565-0.247-0.565-0.565v-4.528c0-1.556-1.274-2.83-2.83-2.83c-1.558,0-2.831,1.274-2.831,2.83V208.562z"/>
		<path fill="#353E44" d="M236.441,209.128c-2.494,0-4.528-2.034-4.528-4.527s2.034-4.528,4.528-4.528
			c2.492,0,4.525,2.035,4.525,4.528c0,0.318-0.248,0.565-0.563,0.565h-7.325c0.285,1.609,1.682,2.83,3.363,2.83h1.131
			c0.317,0,0.567,0.248,0.567,0.566s-0.25,0.565-0.567,0.565H236.441z M233.078,204.034h6.705c-0.266-1.592-1.663-2.83-3.342-2.83
			C234.76,201.204,233.363,202.442,233.078,204.034"/>
	</g>
</g>
</svg>
